<svg xmlns="http://www.w3.org/2000/svg" viewBox="0 0 1110 330"><defs><style>.a{fill:#3c3;}</style></defs><title>enlight</title><path class="a" d="M204.4,58.8c-15.3-9.6-32.3-11.4-49.9-9.1s-33,10.9-44.7,24.9c-16.8,20.1-22.2,42.6-14.3,68a121.9,121.9,0,0,0,21.4,40.8,103.3,103.3,0,0,1,15.6,26.9,56.6,56.6,0,0,0,4.4,8.9,2.6,2.6,0,0,0,2.2,1.5h21.4c.8,0,1.1-.1.9-1s-.5-3.1-.7-4.6c-1.4-10.6-2.3-21.2-.9-31.9,1-7.9,4.4-14.1,11.4-18.1a74.3,74.3,0,0,1,33-9.4c2.2-.1,2.5.3,2.4,2.5-.1.4-.1.8-.2,1.2a50.5,50.5,0,0,1-8.6,19c-7.3,10.4-16.6,17.5-30.1,16.8-1,0-1,.5-.9,1.2.5,7.6.9,15.2,1.4,22.9,0,1.1.4,1.5,1.6,1.5h22.1a4.6,4.6,0,0,0,4.2-2.1,40.6,40.6,0,0,0,5.1-10.2,93.8,93.8,0,0,1,17.3-30.2,69.3,69.3,0,0,0,10.3-14.7c9-18.2,12.8-37.2,8.4-57.3S222,69.9,204.4,58.8ZM155.9,184.2c-.3,2.7-1.1,3.2-3.8,3.1-7.8,0-13.9-3.5-18.2-9.8a37.9,37.9,0,0,1-6.4-19.3c-.1-5.4.3-5.7,4.5-4a52.8,52.8,0,0,1,16.9,10.1C154.8,169.7,156.8,176.5,155.9,184.2Zm22.2-34.6c-2.7,9.3-9.2,14.9-18.1,18-3,1-4.1.3-5.5-2.6a31.5,31.5,0,0,1-1.7-24.1c4.3-13.5,12.3-24.5,23.2-33.5,3.2-2.7,3.7-2.4,4.2,1.7a120.8,120.8,0,0,1,.9,14.7c-.1,8.7-.5,17.3-2.9,25.8Z"/><path class="a" d="M165.6,3.4A161.7,161.7,0,0,0,3.7,165c0,89.3,72.3,161.5,160.9,161.6s162.1-72.1,162.2-161.2S254.7,3.5,165.6,3.4ZM194,279.2a23,23,0,0,1-5.9,4.9c-5.7,3.7-11.6,7-18.2,8.7a11.6,11.6,0,0,1-6.4.1c-8.2-2.2-15.6-6.2-22.6-10.9a12.2,12.2,0,0,1-3.3-3.1c-.5-.8-1-1.6-.5-2.5s1.4-1,2.4-1h52.8c1,0,2.2-.1,2.7.9s-.3,2.2-1,3Zm10.1-15.5a5.7,5.7,0,0,1-5.7,3.5h-65c-4.3,0-7.1-4-5.5-7.7a5.7,5.7,0,0,1,5.6-3.5h65c4.3.1,7.1,3.9,5.6,7.7Zm-74.4-24.5a6,6,0,0,1,3.6-1.2h65.5a5.6,5.6,0,1,1-.1,11.2H133.4a5.5,5.5,0,0,1-5.6-4A5.2,5.2,0,0,1,129.7,239.2Zm107.9-67.5c-2.8,5.2-6.6,9.7-10.4,14.2a84.5,84.5,0,0,0-14.8,25.7,58.2,58.2,0,0,1-5.7,12.1c-3.6,5.5-8.3,8.5-15.1,8.3-8.4-.3-16.8-.1-25.2-.1H140.7c-5.9.2-10.1-2.2-13.1-7.2a63.2,63.2,0,0,1-4.4-8.6A102,102,0,0,0,107.5,189c-11-13.8-18.5-29.4-23.3-46.4-5.4-19-4-37.5,4.5-55.2,9.7-20.2,24.4-35.3,45.3-43.8,12.6-5.1,25.8-6.6,39.3-5.8,11.8.8,23.2,3.3,33.5,9.2,21.7,12.1,35.3,30.6,41.2,54.6S249.5,149.6,237.6,171.7Z"/><path class="a" d="M457.7,189.8c-.1.9-.2,2-.3,3.2H394c1.2,5.9,3.8,10.4,7.7,13.4s8.8,4.5,14.6,4.5a28.1,28.1,0,0,0,11.5-2.2,41.5,41.5,0,0,0,10.6-7.2l14.8,13.1a46.3,46.3,0,0,1-15.7,12.5q-9.2,4.5-21.6,4.5a50.8,50.8,0,0,1-18.9-3.4,43,43,0,0,1-15.2-9.7,44.7,44.7,0,0,1-9.9-14.8,49,49,0,0,1-3.6-19.2v-.3a51.3,51.3,0,0,1,3.3-18.4,48.5,48.5,0,0,1,9.3-15.1,43,43,0,0,1,32.5-13.9c7.6,0,14.1,1.3,19.7,4.1A40.4,40.4,0,0,1,447,151.8a46.4,46.4,0,0,1,8.1,15.8,64.3,64.3,0,0,1,2.6,18.6v3.6Zm-31.2-26.9c-3.3-3.6-7.7-5.4-13.1-5.4s-9.9,1.8-13.2,5.3-5.5,8.2-6.5,14.1h38.9C431.8,171.1,429.8,166.4,426.5,162.9Z"/><path class="a" d="M534.6,229.6V178.9c0-6.1-1.4-10.7-4.1-13.8s-6.6-4.7-11.6-4.7-8.9,1.6-11.8,4.7-4.3,7.7-4.3,13.8v50.7H477V138.5h25.8v13c1.5-1.9,3.1-3.8,4.8-5.6a45.1,45.1,0,0,1,5.9-4.7,32.7,32.7,0,0,1,7.1-3.2,30.9,30.9,0,0,1,8.9-1.2c9.8,0,17.5,3,22.8,9s8.1,14.3,8.1,24.8v59Z"/><path class="a" d="M585.6,229.6v-119h26.2V206h59.3v23.6Z"/><path class="a" d="M692,229.6v-119h26.2v119Z"/><path class="a" d="M834.2,226.1c-8.4,3.7-18.1,5.5-29,5.5a67.2,67.2,0,0,1-25.4-4.6,58.6,58.6,0,0,1-19.7-12.7,57.8,57.8,0,0,1-12.9-19.4,65.1,65.1,0,0,1-4.5-24.5v-.3a61.3,61.3,0,0,1,4.6-23.9,63.4,63.4,0,0,1,13-19.5,61.6,61.6,0,0,1,19.8-13.3,63.7,63.7,0,0,1,25-4.8,81.4,81.4,0,0,1,14.5,1.1,63,63,0,0,1,12.1,3.1,61,61,0,0,1,10.6,5.1,77.2,77.2,0,0,1,9.5,7l-16.5,19.9a50.2,50.2,0,0,0-6.8-5.1,43.5,43.5,0,0,0-7-3.8,48.4,48.4,0,0,0-7.9-2.4,54.9,54.9,0,0,0-9.4-.8,29.8,29.8,0,0,0-13.3,3,34.6,34.6,0,0,0-10.9,8,36.1,36.1,0,0,0-7.3,11.7,38.4,38.4,0,0,0-2.7,14.4v.4a41.3,41.3,0,0,0,2.7,15.1,35.1,35.1,0,0,0,7.4,12,34.7,34.7,0,0,0,26,10.7q14.5,0,24.6-7.2V183.7H804.4V161.1h51.7v51.7A90.6,90.6,0,0,1,834.2,226.1Z"/><path class="a" d="M955.7,229.6V181.8H907.4v47.8H881.2v-119h26.2v47.1h48.3V110.6h26.1v119Z"/><path class="a" d="M1064.3,134.7v94.9h-26.2V134.7h-36.2V110.6h98.6v24.1Z"/></svg>