<svg xmlns="http://www.w3.org/2000/svg" viewBox="0 0 686 546"><defs><style>.a{fill:#039968;}.a,.b,.c,.d,.e{fill-rule:evenodd;}.b{fill:#156736;}.c{fill:#98cb99;}.d{fill:#066736;}.e,.f{fill:#010101;}</style></defs><title>IGEM_logo_print</title><path class="a" d="M270,408.6A162.4,162.4,0,0,0,298.4,437a18.3,18.3,0,0,0-4.2,5l-22,37.8a19.4,19.4,0,0,0,7,26.6l10.6,6.2a19.5,19.5,0,0,0,26.5-7.1l22.1-38a18,18,0,0,0,2.3-6.6,168.7,168.7,0,0,0,30.3,8.6,20.1,20.1,0,0,0-1.6,7.8v43.8a19.3,19.3,0,0,0,19.3,19.5H401a19.5,19.5,0,0,0,19.5-19.4V477.3a17.7,17.7,0,0,0-1-6.1,171,171,0,0,0,37.5-8.6,17.2,17.2,0,0,0,2.2,6.1l21.9,38a19.5,19.5,0,0,0,26.7,7.1l10.7-6.1a19.4,19.4,0,0,0,7.2-26.6l-22-38a18.2,18.2,0,0,0-2.9-3.8,173.3,173.3,0,0,0,29.8-28.1,20.2,20.2,0,0,0,6.4,5.9L575.2,439a19.6,19.6,0,0,0,26.7-7.1l6.1-10.6a19.4,19.4,0,0,0-7.1-26.6l-38.1-21.9a21.8,21.8,0,0,0-7.3-2.5,161.5,161.5,0,0,0,10.9-36.7,18.5,18.5,0,0,0,6.7,1.2H617a19.4,19.4,0,0,0,19.5-19.4V303A19.3,19.3,0,0,0,617,283.7H573.1a19.1,19.1,0,0,0-5.4.8,167.1,167.1,0,0,0-9.7-38.8,18.9,18.9,0,0,0,5.4-2.1l38-21.9a19.2,19.2,0,0,0,7.1-26.4l-6.1-10.6a19.6,19.6,0,0,0-26.6-7l-38,21.9a16.5,16.5,0,0,0-4.1,3.3,160.3,160.3,0,0,0-29.2-29,19.6,19.6,0,0,0,5.7-6.1l21.9-37.7a19.1,19.1,0,0,0-7.1-26.3l-10.6-6.1a19.6,19.6,0,0,0-26.5,7.2L466,142.5a20.7,20.7,0,0,0-2.6,8.2A167,167,0,0,0,419.2,140a19,19,0,0,0,1.7-7.9V88.8a19,19,0,0,0-19.3-19.1H389.5A19.5,19.5,0,0,0,370.1,89l-.2,43.3a20,20,0,0,0,2.5,9.5,168.7,168.7,0,0,0-33.3,9.8,23,23,0,0,0-2-4.9l-21.6-37.4a19.3,19.3,0,0,0-26.4-6.9l-10.6,6.1a19.3,19.3,0,0,0-7.2,26.3l21.6,37.4a16.2,16.2,0,0,0,3.6,4.5,168.9,168.9,0,0,0-28.7,29.9,19.3,19.3,0,0,0-7-6.9l-37.5-21.5a19.5,19.5,0,0,0-26.4,7l-6.2,10.6a19.1,19.1,0,0,0,6.9,26.3l37.6,21.6a19.4,19.4,0,0,0,10.7,2.5,170,170,0,0,0-10.4,43.3,17.2,17.2,0,0,0-6.8-1.3H185.2a19.6,19.6,0,0,0-19.5,19.4v12.2a19.2,19.2,0,0,0,19.3,19.2h43.5a20.6,20.6,0,0,0,9-2.2,165.9,165.9,0,0,0,8.7,30.1,18.3,18.3,0,0,0-7.1,2.5l-37.8,21.8a19.3,19.3,0,0,0-7.3,26.4l6.1,10.6a19.3,19.3,0,0,0,26.4,7.1l37.9-21.8A19.6,19.6,0,0,0,270,408.6ZM315.4,357c-26.8-46.8-10.5-106.6,36.5-133.7s107-11.2,134.1,35.5,10.9,106.9-36.3,134S342.4,403.9,315.4,357Z"/><path class="b" d="M103.1,236.7c27.6-113.3,54.6-155.9,61.8-171.9S195.6,17.1,229,10.5s80.7,13.1,85.1,15.1,43.5,15.9,60,41.6S389,127,371.4,169.1s-42.2,78.8-50.1,97.1c-5.8,13.5-9.5,35.3-7.2,83.7s-1.3,87.4-18.4,111.4c-15.3,21.4-45.1,38.7-96.9,37.7s-75.5-23.8-89.5-47.4C92.9,424.3,75.5,350,103.1,236.7Z"/><path class="c" d="M125.6,234.3c26.5-102.9,47.6-139.6,54.8-153.1,9.2-17.2,22.9-41.7,50.9-47.5s67.3,10.4,71,12.1,38.6,13.3,52.4,35.9,8.8,52.9-6.8,89.6c-16.5,38.9-38,70.6-44.6,86.7-4.9,11.9-11.2,33.1-9.3,75.8s.3,90.6-14,111.7c-12.9,18.9-35.7,33.9-79.2,33s-63.4-21-75.2-41.8C111.8,412.7,100,333.4,125.6,234.3Z"/><path class="d" d="M231,141.4a47.4,47.4,0,0,0,4.4,10.6,12.9,12.9,0,0,0-1.6.9l-10.1,7.5a5.5,5.5,0,0,0-1,7.8l2.1,2.8a5.6,5.6,0,0,0,7.9,1.1l10-7.5a4.9,4.9,0,0,0,1.4-1.5,47.2,47.2,0,0,0,7.1,5.6,6.4,6.4,0,0,0-1.3,1.9L245,182.1a5.6,5.6,0,0,0,3.1,7.3l3.2,1.4a5.7,5.7,0,0,0,7.4-2.9l4.9-11.6a8.5,8.5,0,0,0,.4-1.7,49.8,49.8,0,0,0,10.9,1.9,4.1,4.1,0,0,0,0,1.9l1.6,12.4a5.6,5.6,0,0,0,6.3,4.8l3.5-.4a5.4,5.4,0,0,0,4.8-6.2l-1.6-12.4a5.8,5.8,0,0,0-.3-1.4,45.3,45.3,0,0,0,11-4.1,4.5,4.5,0,0,0,1.1,2.3l7.6,10a5.7,5.7,0,0,0,7.9,1.2l2.8-2.2a5.5,5.5,0,0,0,1-7.8l-7.6-10a5.5,5.5,0,0,0-1.7-1.4,47.3,47.3,0,0,0,7-8.5,4.8,4.8,0,0,0,1.7,1l11.6,4.9a5.7,5.7,0,0,0,7.4-2.9l1.3-3.3a5.5,5.5,0,0,0-2.9-7.2l-11.7-4.9-1.6-.5a46.8,46.8,0,0,0,1.8-11.2h1.7l12.5-1.5a5.6,5.6,0,0,0,4.9-6.2l-.5-3.5a5.5,5.5,0,0,0-6.3-4.8l-12.5,1.5a3.3,3.3,0,0,0-1.4.4,56.4,56.4,0,0,0-4.5-11,3.7,3.7,0,0,0,2.1-1L332,97a5.5,5.5,0,0,0,1.1-7.7l-2.2-2.9a5.8,5.8,0,0,0-7.9-1.1l-10.1,7.6a4.7,4.7,0,0,0-1.5,1.9,51.3,51.3,0,0,0-10.6-7.9,5.3,5.3,0,0,0,1.3-1.9L307,73.5a5.6,5.6,0,0,0-3-7.3l-3.3-1.3a5.7,5.7,0,0,0-7.4,2.9l-4.8,11.5a4.7,4.7,0,0,0-.4,2.8,47.1,47.1,0,0,0-10-1.1V79.4l-1.6-12.3a5.6,5.6,0,0,0-6.3-4.9l-3.5.5a5.4,5.4,0,0,0-4.9,6.1l1.6,12.4a7.5,7.5,0,0,0,.5,1.6,47.8,47.8,0,0,0-11.1,4.8,4.6,4.6,0,0,0-1.1-2.7l-7.6-10a5.8,5.8,0,0,0-7.9-1.1L233.4,76a5.4,5.4,0,0,0-1,7.7l7.6,10a5.3,5.3,0,0,0,2.6,1.9,48.1,48.1,0,0,0-7.6,10.3,5.6,5.6,0,0,0-1.7-1.1l-11.6-4.9a5.7,5.7,0,0,0-7.4,3l-1.3,3.2a5.5,5.5,0,0,0,3,7.3l11.6,4.9a5.1,5.1,0,0,0,2.7.4,38.2,38.2,0,0,0-1,9,8.6,8.6,0,0,0-2.2-.2l-12.6,1.6a5.4,5.4,0,0,0-4.8,6.2l.4,3.4a5.6,5.6,0,0,0,6.3,4.9l12.5-1.5A6.5,6.5,0,0,0,231,141.4Z"/><path class="a" d="M248.9,132.8a27.9,27.9,0,0,1,24.6-31.3A28.5,28.5,0,0,1,305.3,126a28,28,0,0,1-24.6,31.3A28.5,28.5,0,0,1,248.9,132.8Z"/><path class="d" d="M162.9,193.2A25.8,25.8,0,0,1,182,161.8a26.4,26.4,0,0,1,31.9,19.5,25.7,25.7,0,0,1-19.7,30.9A26.3,26.3,0,0,1,162.9,193.2Z"/><path class="d" d="M213.6,177.6l6.8-1.6a3,3,0,0,1,3.7,2.3l.4,1.9a3.1,3.1,0,0,1-2.3,3.6l-6.8,1.6a3.1,3.1,0,0,1-3.7-2.3l-.4-1.9A3,3,0,0,1,213.6,177.6Z"/><path class="d" d="M154.5,191l6.5-1.5a3,3,0,0,1,3.7,2.2l.5,1.9a2.8,2.8,0,0,1-2.2,3.5l-6.6,1.5a3,3,0,0,1-3.6-2.2l-.5-1.8A3,3,0,0,1,154.5,191Z"/><path class="d" d="M197.4,212.1l1.5,6.5a2.9,2.9,0,0,1-2.2,3.5l-1.9.4a3.1,3.1,0,0,1-3.6-2.2l-1.6-6.4a3.1,3.1,0,0,1,2.3-3.6l1.8-.4A3.1,3.1,0,0,1,197.4,212.1Z"/><path class="d" d="M183.9,153.6l1.6,6.8a3.1,3.1,0,0,1-2.2,3.7l-1.9.4a3,3,0,0,1-3.7-2.3l-1.7-6.7a3.2,3.2,0,0,1,2.3-3.8l1.9-.4A3.1,3.1,0,0,1,183.9,153.6Z"/><path class="d" d="M156.4,174.9l6.5,2a3.1,3.1,0,0,1,2.1,3.8l-.5,1.8a3,3,0,0,1-3.7,2l-6.6-2a3,3,0,0,1-2.1-3.7l.5-1.8A3.1,3.1,0,0,1,156.4,174.9Z"/><path class="d" d="M166.8,159.9l4.8,5a3.1,3.1,0,0,1-.1,4.4l-1.4,1.3a3,3,0,0,1-4.3-.1l-4.8-5a3.1,3.1,0,0,1,.1-4.3l1.4-1.4A3.1,3.1,0,0,1,166.8,159.9Z"/><path class="d" d="M209.3,204.5l4.7,4.8a2.9,2.9,0,0,1-.1,4.2l-1.5,1.3a3.1,3.1,0,0,1-4.3-.1l-4.6-4.9a3,3,0,0,1,.1-4.2l1.4-1.3A3.1,3.1,0,0,1,209.3,204.5Z"/><path class="d" d="M171.8,208.3l-4.9,4.5a2.9,2.9,0,0,1-4.2-.1l-1.4-1.4a2.9,2.9,0,0,1,.1-4.1l4.9-4.6a3,3,0,0,1,4.2.2l1.4,1.3A3,3,0,0,1,171.8,208.3Z"/><path class="d" d="M216,166.7l-5,4.8a3.2,3.2,0,0,1-4.4-.1l-1.3-1.4a3,3,0,0,1,.1-4.3l5.1-4.8a3.1,3.1,0,0,1,4.4.1l1.3,1.4A2.9,2.9,0,0,1,216,166.7Z"/><path class="d" d="M215,191.8l6.6,2a2.9,2.9,0,0,1,2,3.7l-.6,1.8a3,3,0,0,1-3.8,2l-6.6-1.9a3,3,0,0,1-2-3.8l.6-1.8A3,3,0,0,1,215,191.8Z"/><path class="d" d="M201,155.3l-2,6.7a3.2,3.2,0,0,1-3.9,2.1l-1.8-.6a3,3,0,0,1-2.1-3.8l2-6.7a3,3,0,0,1,3.8-2.1l1.9.5A3.1,3.1,0,0,1,201,155.3Z"/><path class="d" d="M183.5,213.4l-1.9,6.3a2.9,2.9,0,0,1-3.7,1.9l-1.8-.6a2.9,2.9,0,0,1-2.1-3.6l1.9-6.3a3.1,3.1,0,0,1,3.7-2l1.9.6A2.9,2.9,0,0,1,183.5,213.4Z"/><path class="a" d="M173,191.1a15.2,15.2,0,0,1,11.4-18.4,15.6,15.6,0,0,1,18.7,11.4,15.3,15.3,0,0,1-11.5,18.3A15.8,15.8,0,0,1,173,191.1Z"/><path class="e" d="M22.3,275.3a20.5,20.5,0,0,0,3.5,3.7l-.5.6-2.8,4.6a2.4,2.4,0,0,0,.8,3.3l1.3.8a2.4,2.4,0,0,0,3.4-.7l2.9-4.5.3-.8,3.8,1.3c-.2.2-.2.6-.3.9l-.2,5.5a2.7,2.7,0,0,0,2.5,2.6h1.6a2.5,2.5,0,0,0,2.6-2.3v-5.5a1.9,1.9,0,0,0-.1-.8,21,21,0,0,0,5-.9,3.2,3.2,0,0,0,.3.9l2.7,4.9a2.8,2.8,0,0,0,3.5,1.1l1.5-.7a2.4,2.4,0,0,0,1.1-3.3l-2.8-5-.4-.5a22.5,22.5,0,0,0,4.1-3.4,3,3,0,0,0,.8.8l5,3a2.7,2.7,0,0,0,3.7-.7l.9-1.3a2.4,2.4,0,0,0-.8-3.5l-5.1-3.1a2.9,2.9,0,0,0-1-.3,20.4,20.4,0,0,0,1.7-4.7h.9l6,.2a2.5,2.5,0,0,0,2.8-2.4v-1.6a2.7,2.7,0,0,0-2.6-2.7H61.8a18.9,18.9,0,0,0-1.2-5.1l.8-.2,5.3-2.8a2.5,2.5,0,0,0,1.1-3.5l-.8-1.4a2.8,2.8,0,0,0-3.6-1L58,249.7l-.5.4a22.8,22.8,0,0,0-3.8-3.8l.8-.8,3.1-5a2.5,2.5,0,0,0-.8-3.5l-1.4-.7a2.7,2.7,0,0,0-3.7.9l-3,4.9a3.7,3.7,0,0,0-.5,1.1,19,19,0,0,0-5.9-1.5,1.9,1.9,0,0,0,.3-1l.2-5.7a2.5,2.5,0,0,0-2.6-2.5H38.7A2.7,2.7,0,0,0,36,235v5.6a2.8,2.8,0,0,0,.3,1.3,16.9,16.9,0,0,0-4.4,1.2,1.9,1.9,0,0,0-.2-.7l-2.7-4.8a2.5,2.5,0,0,0-3.4-.9l-1.4.8a2.5,2.5,0,0,0-.9,3.3l2.6,4.8.5.7a19.1,19.1,0,0,0-3.8,3.7,2.6,2.6,0,0,0-.9-.9l-4.7-2.8a2.4,2.4,0,0,0-3.3.8l-.8,1.3a2.7,2.7,0,0,0,.8,3.4l4.7,2.8a1.7,1.7,0,0,0,1.4.3,18,18,0,0,0-1.4,5.4h-.9L12,260a2.5,2.5,0,0,0-2.5,2.3v1.5a2.4,2.4,0,0,0,2.3,2.5l5.4.2a2.4,2.4,0,0,0,1.2-.3,18.6,18.6,0,0,0,1,3.9l-.9.2-4.8,2.5a2.4,2.4,0,0,0-.9,3.2l.7,1.4a2.5,2.5,0,0,0,3.3,1l4.7-2.5A1.6,1.6,0,0,0,22.3,275.3Zm5.9-6.2a12.3,12.3,0,0,1,5.1-16.8,12.9,12.9,0,0,1,17.5,5,12.3,12.3,0,0,1-5.3,17.1A13.1,13.1,0,0,1,28.2,269.1Z"/><rect class="f" x="16.9" y="301.5" width="45.4" height="76.7"/><polygon class="e" points="345.6 237.8 463.8 237.8 463.8 267.9 390.3 267.9 390.2 290.4 457.9 290.2 457.9 319 390.2 319 390.2 345.6 465 346.6 465 377.7 345.6 377.7 345.6 237.8"/><polygon class="e" points="518.2 377.7 518.2 237.8 576.6 237.8 598 324.3 620.9 237.8 678.5 237.8 678.5 377.7 642.4 377.7 642.6 268.4 614.6 377.7 582 377.7 554.9 272.5 554.5 377.7 518.2 377.7"/><path class="e" d="M231.4,283.3l41.6-8.4s-3.5-20.7-23.1-31.9c-12.3-7.1-43.8-12-67.8-6-14.1,3.6-40.5,9.2-49.9,54.4-8.5,41.3,12.2,68.4,25.1,76.4,15.3,9.5,37.9,15.4,74.5,10.2a58.5,58.5,0,0,0,14.5-4.2c15.8-6.8,28.7-19.2,28.7-24.5V298.4H207.2v28.8h29.5v12.5a46.4,46.4,0,0,1-32.1,9.1c-19.2-1.7-28-14.8-29.6-28.7s.3-42.1,13.6-48.8,26.8-6.4,34.5-.3S231.4,283.3,231.4,283.3Z"/><path class="e" d="M275,357.7V343.2l-39.3,17.9L251,371.6s8-3.8,12.6-6.4S274.5,358.4,275,357.7Z"/></svg>