<?xml version="1.0" encoding="utf-8"?>
<!-- Generator: Adobe Illustrator 22.0.1, SVG Export Plug-In . SVG Version: 6.00 Build 0)  -->
<svg version="1.1" id="Layer_1" xmlns="http://www.w3.org/2000/svg" xmlns:xlink="http://www.w3.org/1999/xlink" x="0px" y="0px"
	 viewBox="0 0 600 455" style="enable-background:new 0 0 600 455;" xml:space="preserve">
<g>
	<g>
		<path style="fill:#00703A;" d="M180,27.4c5.2-4.7,10.4-8.7,15.5-12s10.1-5.9,14.7-7.7c4.6-1.9,7.8-3,11.2-3.6
			c1-0.2,4.4-0.9,4.7-1.1c-27.1,2.3-59.7,10.1-78.4,30.3c-4.7,5.1-9.1,10.9-10.6,17.7c-0.9,4.2,2.5,11.3,4.6,15
			c4.2-4.7,6.8-8.8,11.9-12.6c5-3.8,7.9-7.3,10.7-9.9c0.2-0.2,0.3-0.4,0.5-0.6C169.7,37.3,174.8,32,180,27.4z"/>
		<path style="fill:#00703A;" d="M197.6,18.4c-4.7,3.5-9.5,7.7-14.2,12.5c-2.6,2.7-5.3,5.5-7.8,8.5c0.1,0,0.1,0,0.2,0
			c-4.1,5-11.5,17.8-13.7,24c-1.6,4.6-2,9.5-2,14.4c4.2,1.4,8.7,2.2,13.1,2c10.3-0.4,20.6-6.2,25.1-15.7c5.7-12,6-20.6,7.6-33.8
			c1.1-9.3,10.2-18.8,17.7-25.4c-3.3,0.9-8.2,3.2-12.4,5.2C207,12.1,202.3,14.9,197.6,18.4z"/>
	</g>
	<path style="fill:#00703A;" d="M361.5,106.7c-13.4-12.1-34.8-18.2-63.6-18.2h-80.8l-61.3,227h56.9l20.2-74.9h17.6
		c29.9,0,56.3-7,78.3-20.9c23.5-14.8,38.7-34.2,45-57.7C380.2,138.8,375.9,119.6,361.5,106.7z M315.3,163.1
		c-2.3,8.7-6.9,14.6-14.6,19.3c-9.3,5.5-22.4,8.4-38.9,8.4h-15.4l14.2-52.5h19C322,138.3,317.3,155.7,315.3,163.1z"/>
	
		<linearGradient id="SVGID_1_" gradientUnits="userSpaceOnUse" x1="56.3388" y1="615.5628" x2="56.3388" y2="377.5628" gradientTransform="matrix(1 0 0 1 0 -230)">
		<stop  offset="0" style="stop-color:#009245"/>
		<stop  offset="0.2888" style="stop-color:#76D15A"/>
	</linearGradient>
	<path style="fill:url(#SVGID_1_);" d="M87.7,165.1c-11.6,13.1-20.7,27-29.8,41.2C49,220.6,40.6,235.4,33.1,251
		c-7.4,15.6-14.1,32.1-18.7,50c-2.3,9-4,16.4-5.1,26.3c-1.1,9.3-1,22.9,3.1,34.4l62.3,23.9c-31.6-17.2-12.9-88.6-9.4-103.2
		c0.6-2.5,38.6-134.8,38.6-134.8C97.7,153.9,93.6,158.4,87.7,165.1z"/>
	
		<linearGradient id="SVGID_2_" gradientUnits="userSpaceOnUse" x1="277.4912" y1="367.8242" x2="332.8413" y2="249.1255" gradientTransform="matrix(1 0 0 1 0 -230)">
		<stop  offset="0" style="stop-color:#009245"/>
		<stop  offset="0.1551" style="stop-color:#76D15A"/>
	</linearGradient>
	<path style="fill:url(#SVGID_2_);" d="M423.1,73.7c-3.4-6.6-8.8-13-15.9-18.3s-15.9-9.4-25.5-12.3c-19.4-5.6-42.2-7-66.6-5.1
		c-12.2,1-24.9,2.7-37.8,5.5c-6.5,1.4-13,3-19.7,5c-3.3,1-6.6,2.1-10,3.5c-3.2,1.3-6.4,2.6-9.7,4c-12.9,5.5-26.1,11.8-39,19
		c-6.5,3.6-12.9,7.5-19.2,11.5c5.3,2.1,9.5,4.7,11.3,8.8c0.4,0.9,0.9,1.9,1.4,2.9c4.8-3.6,9.6-7,14.5-10.3
		c14.9-10,27.3-16.9,35.9-21.3c1.6-0.8,3.1-1.5,4.6-2.3l2.3-1.1l1.2-0.6c0.2-0.1,0.7-0.3,1-0.5c2.9-1.3,6-2.5,9-3.6
		c6.1-2.2,12.4-4.1,18.5-5.7c12.4-3.2,24.6-5.5,36.4-6.8c23.6-2.7,45.7-2.2,64.2,2.8c9.2,2.5,17.4,6.1,24,10.8
		c6.6,4.7,11.5,7.9,14.7,13.8c1.1,2.1,2.3,4.4,3.5,6.9h3.8C425.2,78.2,424.3,76,423.1,73.7z"/>
	<polygon style="fill:#00703A;" points="462.6,315.5 405.6,315.5 453.4,138.3 383.7,138.3 397.1,88.5 593.8,88.5 580.3,138.3 
		510.4,138.3 	"/>
	<path style="fill:#00703A;" d="M124.3,103.7L66.7,315.4h58.5l57.2-210.1c4.5-16.5-35.4-16.8-32.5-27.2c2.1-7.5,7.6-16.5,11.7-21.8
		c-13.7,11.6-29.9,28.8-36.5,44.6L124.3,103.7z"/>
	<path style="fill:#009245;" d="M393.2,379.3c-4.9,2.5-8.7,4.3-10.8,5.4c-4.5-5.6-23.9-27-32-38.6
		C362.4,332.4,371,327.4,393.2,379.3z"/>
	<path style="fill:#009245;" d="M237,319.4c0,0,21.6,1,34.7,1c2,0,7.7-6.1,9.7-11.1c-16.9-1.3-28.2-1.2-45.1-0.8
		C236.1,312,237,319.4,237,319.4z"/>
	<path style="fill:#76D15A;" d="M15.5,365.8c8.3,11,27.5,35.9,38.2,44.5c8.3,6.7,12.8,9.7,20.6,16.9c3.9,3.6,15.8,9.4,19.1,13.5
		c16,6.4,33,6.5,41.3,7.3c24.5,2.3,42.5,1.1,69.6-6.3c13.6-3.7,26.2-7.6,39.5-13.6c6.6-3,108.2-71.1,122.8-107l-76.4-26.2
		c-26.9,57-139.1,88.6-196.5,82c-25.1-2.9-48.6-11-64-17.3l-1.2-0.7C5,347.1,8.8,331.6,10.9,315.1C8.4,327,7.4,337.7,8.5,348
		c0.3,2.7,3.2,14.8,5.9,15.7L15.5,365.8z"/>
	<g>
		
			<linearGradient id="SVGID_3_" gradientUnits="userSpaceOnUse" x1="112.5839" y1="698.5292" x2="344.1484" y2="422.5614" gradientTransform="matrix(1 0 0 1 0 -230)">
			<stop  offset="0" style="stop-color:#009245"/>
			<stop  offset="0.3797" style="stop-color:#76D15A"/>
		</linearGradient>
		<path style="fill:url(#SVGID_3_);" d="M11.6,361.2c2.4,6.2,8.2,17.7,12.5,23.5c8.3,11,16.1,32.8,64.8,54.8
			c38.3,17.3,95.2,15.8,122.3,8.3c12.6-3.4,118-31.4,151.8-102.5l30,33.1L372,216l-135.7,92.5l59.4,1.1
			c-30.4,54-144.2,82.6-200.2,77.5c-29.2-2.6-53.2-11.1-67.9-17.7l0,0c-6.8-4.1-14.9-6.6-19.1-20.9C8.8,352.9,10.3,358,11.6,361.2z"
			/>
	</g>
</g>
</svg>
