<?xml version="1.0" encoding="utf-8"?>
<!-- Generator: Adobe Illustrator 22.0.1, SVG Export Plug-In . SVG Version: 6.00 Build 0)  -->
<svg version="1.1" id="Layer_4" xmlns="http://www.w3.org/2000/svg" xmlns:xlink="http://www.w3.org/1999/xlink" x="0px" y="0px"
	 viewBox="0 0 449.7 118.1" style="enable-background:new 0 0 449.7 118.1;" xml:space="preserve">
<g>
	<path style="fill:#54305A;" d="M160.8,33.7c3.2,0,6,0.5,8.3,1.4c2.3,0.9,4.1,2.2,5.5,3.7c1.4,1.5,2.5,3.3,3.1,5.3c0.7,2,1,4,1,6.2
		c0,2.1-0.3,4.1-1,6.1c-0.7,2-1.7,3.8-3.1,5.3c-1.4,1.5-3.3,2.8-5.5,3.7c-2.3,0.9-5,1.4-8.3,1.4h-12v18.6h-11.4V33.7H160.8z
		 M157.7,58c1.3,0,2.6-0.1,3.8-0.3c1.2-0.2,2.3-0.6,3.2-1.1c0.9-0.6,1.7-1.3,2.2-2.4c0.6-1,0.8-2.3,0.8-4c0-1.6-0.3-3-0.8-4
		c-0.6-1-1.3-1.8-2.2-2.4c-0.9-0.6-2-0.9-3.2-1.1c-1.2-0.2-2.5-0.3-3.8-0.3h-8.9V58H157.7z"/>
	<path style="fill:#54305A;" d="M206.3,33.7l19.4,51.8h-11.8L210,73.9h-19.4l-4.1,11.5h-11.5l19.6-51.8H206.3z M207,65.4l-6.5-19
		h-0.1l-6.7,19H207z"/>
	<path style="fill:#54305A;" d="M244.5,33.7v42.2h25.2v9.6h-36.6V33.7H244.5z"/>
	<path style="fill:#54305A;" d="M314.9,33.7v9.6h-27.4v11.1h25.1v8.9h-25.1v12.7h27.9v9.6h-39.3V33.7H314.9z"/>
	<polygon style="fill:#54305A;" points="363,33.7 362,33.7 320.5,33.7 320.5,43.2 336.1,43.2 336.1,85.5 347.4,85.5 347.4,43.2 
		362,43.2 363,43.2 377.5,43.2 377.5,85.5 388.9,85.5 388.9,43.2 404.4,43.2 404.4,33.7 	"/>
	<path style="fill:#54305A;" d="M449.1,33.7v9.6h-27.4v11.1h25.1v8.9h-25.1v12.7h27.9v9.6h-39.3V33.7H449.1z"/>
</g>
<g>
	<path style="fill:#FF5C4B;" d="M104.2,23.1H95v-7.3v-4.3H23.1V14v9.2h-7.3h-4.3v0h0V95h0v0H14h9.2v7.3v4.3H95v-2.4V95h7.3h4.3V23.1
		H104.2z M95,95H23.2V23.2H95V95z"/>
	<rect x="11.6" y="11.6" style="fill:#B80031;" width="11.6" height="11.6"/>
	<rect y="11.6" style="fill:#54305A;" width="11.6" height="11.6"/>
	<rect x="106.6" y="11.6" style="fill:#54305A;" width="11.6" height="11.6"/>
	<rect y="95" style="fill:#54305A;" width="11.6" height="11.6"/>
	<rect x="106.6" y="95" style="fill:#54305A;" width="11.6" height="11.6"/>
	<rect x="95" y="0" style="fill:#54305A;" width="11.6" height="11.6"/>
	<rect x="11.6" y="0" style="fill:#54305A;" width="11.6" height="11.6"/>
	<rect x="95" y="106.6" style="fill:#54305A;" width="11.6" height="11.6"/>
	<rect x="11.6" y="106.6" style="fill:#54305A;" width="11.6" height="11.6"/>
	<rect x="95" y="11.6" style="fill:#B80031;" width="11.6" height="11.6"/>
	<rect x="95" y="95" style="fill:#B80031;" width="11.6" height="11.6"/>
	<rect x="11.6" y="95" style="fill:#B80031;" width="11.6" height="11.6"/>
</g>
</svg>
