<?xml version="1.0" encoding="utf-8"?>
<!-- Generator: Adobe Illustrator 22.0.1, SVG Export Plug-In . SVG Version: 6.00 Build 0)  -->
<svg version="1.1" id="Layer_1" xmlns="http://www.w3.org/2000/svg" xmlns:xlink="http://www.w3.org/1999/xlink" x="0px" y="0px"
	 viewBox="0 0 100 36" style="enable-background:new 0 0 100 36;" xml:space="preserve">
<g id="Page-1">
	<g id="About" transform="translate(-40.000000, -15.000000)">
		<g id="hero" transform="translate(0.000000, -42.000000)">
			<g id="nav" transform="translate(40.000000, 57.000000)">
				<path id="logo" d="M6.1,23c-0.2,0-0.6,0.1-0.5,0.3c0,0.4,1.1,1.1,2.2,1.9c1.7,1.1,3.6,2.4,3.8,3.6c0.1,0.6,0,4.6,0,4.8
					c-0.1,1.3-1.1,2.2-2.5,2.4l0,0H0.8c-0.3,0-0.5-0.1-0.6-0.2C0,35.5,0,35.2,0,35.2C0,35.1,0,33,0,32.4c0.1-0.7,0.7-0.8,0.7-0.8
					l0,0h4.8c0.4-0.1,0.5-0.1,0.5-0.6c0.1-0.5-1.4-1.4-2.6-2.2c-0.9-0.6-1.9-1.2-2.4-1.8c-0.7-0.8-0.9-1.4-1-1.6l0-0.1
					c0-0.1,0-0.9,0-2.3c0-0.7,0-1.4,0-2.1c0-0.9,0.5-1.5,1-1.8c0.5-0.4,1.2-0.5,1.5-0.5c0.1,0,0.4,0,0.7,0c0.9,0,2.5,0,3.9,0
					c3.6,0,3.7,0,3.8,0.1c0.2,0.1,0.4,0.3,0.5,0.7c0.1,0.6,0,2-0.4,2.7c-0.3,0.6-0.6,1-1.1,1.1c-0.1,0-0.2,0-0.4,0
					c-0.5,0-1.4,0-2.1,0c-0.5,0-1,0-1.2,0C6.2,23,6.2,23,6.1,23L6.1,23z M98.8,30.4c0.6,1.7,1.2,3.5,1.2,4.1c0,1.5-0.9,1.5-1.4,1.5
					H96c-1,0-1.5-0.3-1.8-1c-0.2-0.4-0.3-1.3-0.5-2.4c-0.2-1.1-0.5-3.2-0.8-3.2c-0.3,0-0.8,3.1-1,4.3c-0.1,0.6-0.2,1-0.2,1.3
					c-0.2,0.9-1.1,1-1.8,1H87c-0.5,0-1-0.4-1-1.5c0-0.3,0.3-1.3,0.9-2.9c0.6-1.8,1.4-4.1,1.4-4.7c0-0.7-0.7-2.9-1.3-4.7
					c-0.4-1.4-0.7-2.2-0.7-2.5c0-0.5,0.4-1.3,1.2-1.3h2.6c1,0,1.6,0.4,1.7,1.1l0,0.2c0.6,4.1,0.9,4.8,1.1,4.9
					c0.2-0.2,0.5-2.4,0.7-3.5c0.1-0.8,0.2-1.5,0.3-1.7c0.2-0.6,0.8-1,1.7-1h2.9c0.5,0,1,0.6,1,1.3c0,0.3-0.3,1.3-0.7,2.5
					c-0.5,1.7-1.1,3.9-1.1,4.6C97.8,27.3,98.3,28.9,98.8,30.4z M81.7,18.5c2.1,0,3.2,1.2,3.2,3.2v11c0,2.3-1,3.2-3.5,3.2h-6.2
					c-2.3,0-3.4-1-3.4-3V21.7c0-2.9,2-3.2,3.5-3.2H81.7z M79.5,24c0-0.6-0.5-1-1-1c-0.6,0-1,0.5-1,1v6.5c0,0.6,0.5,1,1,1
					c0.6,0,1-0.5,1-1V24z M16,30.6c-0.1,0-3,0-3-2.2v-7.5c0,0,0.3-2.2,2.3-2.3c0.2,0,0.4,0,0.6,0c0.2,0,0.4,0,0.6,0
					c0.1,0,0.2,0,0.3,0l0.1,0c0.5,0,0.9-0.2,1-0.6c0.3-0.7-0.4-3.9-0.6-4.3c-0.1-0.1-0.1-0.2-0.2-0.2c-0.1-0.1-0.2-0.1-0.3-0.3
					c-0.4-0.5-0.8-7.2-0.6-7.7c0.2-0.3,0.6-0.5,1-0.7c0.5-0.2,1-0.5,1-0.7c0-0.1-0.2-0.3-0.3-0.5c-0.3-0.3-0.6-0.6-0.6-0.9V2.4
					c0-0.5,0-1.4,0.5-1.9C18.3,0.2,18.7,0,19.3,0C20.9,0,21,0.7,21,1l0,0.1c0,0.1,0.2,0.3,0.3,0.4c0.1,0.2,0.2,0.2,0.2,0.3
					c0,0.1-0.1,0.2-0.2,0.3c0,0-0.1,0.1-0.1,0.1c-0.1,0.1-0.3,0.3-0.5,0.4c-0.1,0.1-0.4,0.2-0.4,0.3c0,0.2,0,0.4,0,0.5
					c0.1,0,0.4,0,0.7,0c0.3,0,0.3,0,0.4,0.1c0.1,0.1,0,0.2-0.1,0.5c0,0.1-0.1,0.2-0.1,0.3c0.1,0.1,0.3,0.2,0.5,0.4
					c0.5,0.4,1.3,1,1.7,1c0,0,0.1,0,0.1,0c0.1,0,0.1-0.1,0.2-0.2C23.6,5.2,23.4,4.6,23,4c-0.1,0-0.1-0.1-0.2-0.1
					c-0.2-0.1-0.5-0.2-0.5-0.7c0-0.8,1.6-1.4,3.3-2c0.5-0.2,1-0.4,1.4-0.5c0.3-0.1,0.6-0.1,0.8,0.2C27.9,1,28,1.2,28,1.4
					c0,0.1,0,0.5,0,0.9c0,1,0,1.7-0.1,1.9c-0.1,0.2-0.3,0.7-0.8,0.7h0c-0.3,0-0.7-0.1-1-0.2c-0.3-0.1-0.6-0.2-0.8-0.2
					c-0.1,0-0.1,0-0.2,0c-0.2,0.1-0.4,0.2-0.4,0.4c0,0.4,0,1.6,0,1.6c0,0.2-0.2,0.6-0.6,0.7C23.8,7.3,23.4,7.1,23,7
					c-0.3-0.1-0.6-0.2-0.7-0.2c-0.1,0-0.1,0-0.1,0C22,11,21.6,13.4,21.3,15c-0.2,1.2-0.3,1.9-0.3,2.8c0,0.5,0.3,0.7,0.7,0.7
					c0,0,0.1,0,0.1,0c0.2,0,0.4,0,0.8,0c0.4,0,0.8,0,1.3,0c1.1,0,1.9,1.2,1.9,2.3C26,23.1,26,27,26,27.9c0,1.8-1.2,2.7-2.4,2.7l0,0
					H16z M18.5,23.7v1.9c0,0,0.1,0.8,1,0.8c0.3,0,0.5-0.1,0.7-0.2c0.2-0.2,0.2-0.6,0.2-0.6v-1.8c0,0,0-0.3-0.2-0.5
					C20.1,23,19.8,23,19.5,23C18.6,23,18.5,23.6,18.5,23.7z M67.2,18.5c1.8,0,2.9,0.8,2.9,2.1v4.2c0,1-0.9,1.5-1.5,1.8
					C68.3,26.8,68,26.9,68,27c0,0.1,0.2,0.2,0.5,0.3c0.6,0.3,1.6,0.8,1.6,2v4.6c0,1.4-1.4,2.1-2.7,2.1h-9.2c-0.5,0-1-0.4-1-1V19.4
					c0-0.5,0.4-1,1-1H67.2z M63.9,24.7c0.5,0,0.8-0.4,0.8-0.8c0-0.5-0.4-0.8-0.8-0.8h-0.3c-0.5,0-0.8,0.4-0.8,0.8
					c0,0.5,0.4,0.8,0.8,0.8H63.9z M63.6,29.3c-0.4,0-0.8,0.3-0.8,0.8v0.6c0,0.4,0.4,0.8,0.8,0.8H64c0.4,0,0.8-0.3,0.8-0.8v-0.6
					c0-0.4-0.4-0.8-0.8-0.8H63.6z M53.1,18.5c1.4,0,2.6,1.2,2.6,2.7v6.5c0,1.3-1,2.9-2.4,2.9h-4.1c-0.4,0-1,0.3-1,0.9
					c0,0.7,0,3.5,0,3.5c0,0.5-0.4,1-1,1h-3.5c-0.5,0-1-0.4-1-1V19.4c0-0.5,0.4-1,1-1H53.1z M50.1,23.8c0-0.4-0.4-0.8-0.8-0.8h-0.4
					c-0.4,0-0.8,0.4-0.8,0.8v1.4c0,0.4,0.4,0.8,0.8,0.8h0.4c0.4,0,0.8-0.4,0.8-0.8V23.8z M38.1,18.5c0.4,0.2,0.7,0.5,0.9,0.9
					c0.1,0.6,2.5,14.4,2.3,15.6c-0.1,0.6-0.6,1-1,1c-0.2,0-1.5,0-2.6,0l-1.1,0c-0.1,0-0.6-0.2-0.9-0.6c-0.2-0.3-0.2-0.8-0.2-1.2
					c0-0.3,0-0.6-0.1-0.8c-0.1-0.5-0.6-0.8-1.1-0.8c-0.6,0-1.1,0.4-1.2,0.8c0,0.2-0.1,0.5-0.1,0.9c0,0.4-0.1,0.8-0.1,1
					c-0.2,0.5-0.5,0.8-0.8,0.9c0,0-0.1,0-4.7,0c-4.5,0-10.7,0-12.6,0l-0.5,0c-0.9,0-1.1-0.4-1.2-0.9c0,0,0-0.3,0-1.4v-0.9
					c0-1,0.4-1.2,1.4-1.2h12.4c0.7,0,0.9-0.8,1-1.4c0.6-4.3,1.6-10.1,1.7-10.7c0.1-0.5,0.5-0.9,1.1-1l0,0L38.1,18.5L38.1,18.5z
					 M34.9,27.1c0-1-0.3-4-0.6-4.1c-0.3,0.1-0.6,3.3-0.6,4.1c0,0.5,0.3,0.9,0.6,0.9C34.6,28,34.9,27.7,34.9,27.1z"/>
			</g>
		</g>
	</g>
</g>
</svg>
