<svg xmlns="http://www.w3.org/2000/svg" viewBox="0 0 329.7 57.8"><defs><style>.a,.e{fill:none;}.b{fill:#231f20;}.c{fill:#fff;}.d{fill:#ffd74f;}.e{stroke:#231f20;stroke-width:0.82px;}.f{fill:#cd1543;}</style></defs><title>waterloo-mathematics</title><rect class="a" x="-37.9" y="-26.5" width="405.5" height="110.89"/><path class="b" d="M61.3,11.2V3.9h2.8v7.2c0,2.1,1,3.2,2.7,3.2s2.8-1,2.8-3.1V3.9h2.8v7.2c0,3.9-2.2,5.8-5.6,5.8S61.3,15,61.3,11.2Z"/><path class="b" d="M75.3,3.9h2.6l5.9,7.9V3.9h2.8V16.7H84.2L78,8.6v8.1H75.3Z"/><path class="b" d="M89.8,3.9h2.8V16.7H89.8Z"/><path class="b" d="M94.7,3.9h3.1l3.4,9,3.3-9h3.1l-5.2,12.9H99.9Z"/><path class="b" d="M109.5,3.9h9.7V6.4h-6.9V9h6.1v2.5h-6.1v2.7h7v2.5h-9.8Z"/><path class="b" d="M121.8,3.9h5.8a5.4,5.4,0,0,1,3.8,1.3,3.9,3.9,0,0,1,1,2.9h0a3.9,3.9,0,0,1-2.7,3.9l3.1,4.6h-3.3l-2.7-4.1h-2.2v4.1h-2.8Zm5.6,6.2c1.4,0,2.2-.7,2.2-1.8h0c0-1.2-.8-1.8-2.2-1.8h-2.8v3.6Z"/><path class="b" d="M134.1,14.8l1.7-2a5.5,5.5,0,0,0,3.8,1.6c1.1,0,1.8-.5,1.8-1.2h0c0-.8-.4-1.1-2.5-1.7s-4.3-1.3-4.3-3.9h0c0-2.3,1.9-3.9,4.5-3.9a6.8,6.8,0,0,1,4.7,1.7l-1.4,2.1a6,6,0,0,0-3.3-1.3c-1.1,0-1.7.5-1.7,1.1h0c0,.8.6,1.1,2.8,1.6s4,1.7,4,3.9h0c0,2.6-1.9,4-4.7,4A8,8,0,0,1,134.1,14.8Z"/><path class="b" d="M146.8,3.9h2.8V16.7h-2.8Z"/><path class="b" d="M155.8,6.5h-3.9V3.9h10.6V6.5h-3.9V16.7h-2.8Z"/><path class="b" d="M168.3,11.7l-5-7.8h3.3L169.7,9l3.1-5.1H176l-4.9,7.7v5.1h-2.8Z"/><path class="b" d="M182.7,10.3h0a6.6,6.6,0,0,1,6.8-6.6,6.5,6.5,0,0,1,6.7,6.6h0a6.6,6.6,0,0,1-6.8,6.6A6.5,6.5,0,0,1,182.7,10.3Zm10.6,0h0a3.9,3.9,0,1,0-7.7,0h0a3.9,3.9,0,1,0,7.7,0Z"/><path class="b" d="M198.8,3.9h9.7V6.5h-6.9V9.2h6.1v2.6h-6.1v4.9h-2.8Z"/><path class="b" d="M215.2,3.9h3.1l2.6,8.7,2.9-8.7h2.4l2.8,8.7,2.7-8.7h2.9l-4.3,12.9h-2.5l-2.9-8.4L222,16.8h-2.4Z"/><path class="b" d="M239.5,3.8h2.6l5.4,12.9h-2.9l-1.2-2.9H238l-1.2,2.9H234Zm2.9,7.6-1.7-4.2L239,11.4Z"/><path class="b" d="M250.8,6.5H247V3.9h10.5V6.5h-3.8V16.7h-2.9Z"/><path class="b" d="M259.7,3.9h9.6V6.4h-6.8V9h6v2.5h-6v2.7h6.9v2.5h-9.7Z"/><path class="b" d="M271.9,3.9h5.9a5.2,5.2,0,0,1,3.7,1.3,4,4,0,0,1,1.1,2.9h0a3.9,3.9,0,0,1-2.7,3.9l3.1,4.6h-3.3L277,12.6h-2.2v4.1h-2.9Zm5.7,6.2c1.4,0,2.2-.7,2.2-1.8h0c0-1.2-.9-1.8-2.2-1.8h-2.8v3.6Z"/><path class="b" d="M285.2,3.9H288V14.1h6.3v2.6h-9.1Z"/><path class="b" d="M295.2,10.3h0a6.8,6.8,0,0,1,13.6,0h0a6.7,6.7,0,0,1-6.9,6.6A6.5,6.5,0,0,1,295.2,10.3Zm10.6,0h0a3.9,3.9,0,1,0-7.7,0h0a3.9,3.9,0,1,0,7.7,0Z"/><path class="b" d="M310.7,10.3h0a6.6,6.6,0,0,1,6.8-6.6,6.5,6.5,0,0,1,6.8,6.6h0a6.6,6.6,0,0,1-6.8,6.6A6.5,6.5,0,0,1,310.7,10.3Zm10.6,0h0a3.9,3.9,0,1,0-7.7,0h0a3.9,3.9,0,0,0,3.9,4A3.8,3.8,0,0,0,321.3,10.3Z"/><path class="b" d="M61.4,23.3h8.3v1.8H63.3v3.1H69V30H63.3v4.5H61.4Z"/><path class="b" d="M74.5,23.2h1.8l5,11.3H79.2L78,31.8H72.7l-1.1,2.7h-2Zm2.8,6.9-1.9-4.5-1.9,4.5Z"/><path class="b" d="M82,28.9h0a5.7,5.7,0,0,1,5.8-5.8,5.8,5.8,0,0,1,4.4,1.8l-1.3,1.4a4.7,4.7,0,0,0-3.1-1.4,3.8,3.8,0,0,0-3.7,4h0a3.8,3.8,0,0,0,3.7,4A4.6,4.6,0,0,0,91,31.4l1.3,1.3a6,6,0,0,1-4.6,2A5.6,5.6,0,0,1,82,28.9Z"/><path class="b" d="M94.1,29.8V23.3h2v6.4c0,2.1,1.1,3.2,2.9,3.2s2.8-1.1,2.8-3.1V23.3h2v6.4c0,3.3-1.9,5-4.9,5S94.1,33,94.1,29.8Z"/><path class="b" d="M106.5,23.3h1.9v9.4h5.9v1.8h-7.8Z"/><path class="b" d="M117.6,25.1H114V23.3h9.1v1.8h-3.6v9.4h-1.9Z"/><path class="b" d="M128.5,30.1,124,23.3h2.4l3.1,5,3.2-5h2.2l-4.4,6.8v4.4h-2Z"/><path class="b" d="M140.3,28.9h0a5.8,5.8,0,0,1,5.9-5.8,5.7,5.7,0,0,1,5.9,5.8h0a5.9,5.9,0,0,1-11.8,0Zm9.7,0h0a3.8,3.8,0,1,0-7.6,0h0a3.8,3.8,0,0,0,3.8,4A3.8,3.8,0,0,0,150,28.9Z"/><path class="b" d="M154.5,23.3h8.3v1.8h-6.4v3.1h5.7V30h-5.7v4.5h-1.9Z"/><path class="b" d="M169.8,23.3h2.1l3.4,5.3,3.4-5.3h2.1V34.5h-1.9v-8l-3.6,5.3h0l-3.5-5.3v8h-2Z"/><path class="b" d="M187.3,23.2h1.8l5,11.3H192l-1.1-2.7h-5.4l-1.1,2.7h-2Zm2.8,6.9-1.9-4.5-1.9,4.5Z"/><path class="b" d="M197.2,25.1h-3.6V23.3h9.1v1.8h-3.6v9.4h-1.9Z"/><path class="b" d="M204.8,23.3h2V28h5.3V23.3h2V34.5h-2V29.8h-5.3v4.7h-2Z"/><path class="b" d="M217,23.3h8.3v1.8H219V28h5.6v1.7H219v3.1h6.4v1.7H217Z"/><path class="b" d="M227.7,23.3h2.1l3.4,5.3,3.5-5.3h2.1V34.5h-2v-8l-3.6,5.3h0l-3.5-5.3v8h-2Z"/><path class="b" d="M245.5,23.2h1.8l4.9,11.3h-2L249,31.8h-5.3l-1.1,2.7h-2.1Zm2.8,6.9-1.9-4.5-2,4.5Z"/><path class="b" d="M255.3,25.1h-3.5V23.3h9.1v1.8h-3.6v9.4h-2Z"/><path class="b" d="M262.9,23.3h2V34.5h-2Z"/><path class="b" d="M267.4,28.9h0a5.7,5.7,0,0,1,5.8-5.8,5.8,5.8,0,0,1,4.4,1.8l-1.3,1.4a4.7,4.7,0,0,0-3.1-1.4,3.8,3.8,0,0,0-3.7,4h0a3.8,3.8,0,0,0,3.7,4,4.6,4.6,0,0,0,3.2-1.5l1.2,1.3a5.8,5.8,0,0,1-10.2-3.8Z"/><path class="b" d="M279,32.9l1.2-1.4a5,5,0,0,0,3.5,1.4c1.2,0,2-.5,2-1.4h0c0-.8-.5-1.2-2.5-1.7s-3.8-1.3-3.8-3.4h0c0-1.9,1.6-3.3,3.8-3.3a6.2,6.2,0,0,1,4.1,1.4l-1,1.5a5.6,5.6,0,0,0-3.1-1.1c-1.1,0-1.8.6-1.8,1.3h0c0,.8.5,1.2,2.7,1.7s3.6,1.4,3.6,3.3h0c0,2.1-1.7,3.4-4.1,3.4A6.7,6.7,0,0,1,279,32.9Z"/><path class="c" d="M26.8,55.7l-.6-.3A33.4,33.4,0,0,1,12,43.6C4.2,31.7,4,19.5,3.7,6.5c0-1,0-2-.1-3V2.2H49.9V3.5c0,1-.1,2-.1,3-.3,13-.5,25.2-8.2,37.1A33.7,33.7,0,0,1,27.3,55.4Z"/><path class="d" d="M44.7,32.9,26.8,19.4,9,33.4C5.7,24,5.8,14.3,5.6,4.2H47.9C47.7,14.1,47.8,23.7,44.7,32.9Z"/><path class="d" d="M42.2,38.7a27.1,27.1,0,0,1-2.1,3.7A31.7,31.7,0,0,1,26.8,53.5,30.6,30.6,0,0,1,13.5,42.4a20.7,20.7,0,0,1-1.9-3.2L26.8,26.4Z"/><path class="e" d="M26.8,53.5A30.6,30.6,0,0,1,13.5,42.4C5.6,30.4,5.9,17.5,5.6,4.2H47.9c-.3,13.3,0,26.2-7.8,38.2A31.7,31.7,0,0,1,26.8,53.5Z"/><path class="f" d="M14.4,11.5c-2.2-.5-4.1-2-3.6-4.1,0,0-.1-.5-.3-.6h-.3a.1.1,0,0,0-.1-.1.3.3,0,0,1-.1.2.1.1,0,0,1-.1.1h0c-.2.1-.1.4-.1.6h0c-.1,0,0,0-.1-.1H9.4a.4.4,0,0,1-.1-.3c-.1,0-.1-.2-.1-.2s-.3-.3-.2-.2,0-.1-.2-.1H8.4l-.5.2H8c.1.1,0,.2,0,.3l.3.3h.3s.2.1,0,.2-.6.1-.8.6.4.4.5.4,1.3.2,1.6,1-.4.4.2.5a.7.7,0,0,1,.6.4c.2.2.2.5.4.7l.3.3.4.2h.6a.8.8,0,0,1,.1.4h1.2A.9.9,0,0,1,14,12l.2-.4h.2"/><path class="f" d="M9,11.7c.7.4.6,1.2,1.1,1.5a3.9,3.9,0,0,0,3.3.3c-.2.7,0,1.3-.1,1.4s-1.3,0-2-.3-.8.5-1.3.4a1,1,0,0,0,.1-.3c-.1-.2-.2-.3-.6-.3s-.1.3-.5.5-.5-.2-.6.1-.3-.5-.2-.6.3-.6.3-.7-.6-.3-.7-.2-.6-1,.9-.9c-.4-.2-.4-.3-.3-.6s-.1-.2-.2-.1,0-.2.1-.2H9"/><path class="f" d="M12,8.7c.9.2,2.3-1,3.1.4-.6-.2-2.3.7-3.1-.4"/><path class="f" d="M19.6,10.7c0,1.2-1.2,2.4-.2,3.6a2.1,2.1,0,0,1-1.2-.4c-.2-.1-.1.5-.1.7s-.8-.7-1.1-.5a3.1,3.1,0,0,1-2.4.8.9.9,0,0,0-.6.6,6.6,6.6,0,0,1,.1-2.4c.5-1.6,2-2,3.3-2.8a2.7,2.7,0,0,0,1.2-2.6,4.7,4.7,0,0,1,1,3"/><path class="f" d="M13.8,24c.2,0,.1.2,0,.2l-.3.3c0,.1-.1.2-.1.3a.4.4,0,0,1,.1.3h.2c0-.2.1-.3.2-.3s.8-.4,1.3-.7.6,0,.5.4.6-.9,1-1.3a10.2,10.2,0,0,1,3-1.9,15.4,15.4,0,0,1-1.3-1.2c-.1-.3-.3-.7,0-.6a1.7,1.7,0,0,0,2.2-1.5c2,.2,2.5-1.6,2.7-3s.5-.7.1-1.9.9-.6.7-1.4a.5.5,0,0,0-.5-.5c.2.4-.6.5-.7.7s-.3.5-.3.8-.1-1.9.5-2.7,2.6-.6,3.4.2A1.9,1.9,0,0,0,26,9.3c.7-.1,1.4.3,2.4-.2a2.8,2.8,0,0,0,1.4-1.2c-1.2.1-2.8-.8-3.9-1s-3.3,1.1-4,2.7a3.8,3.8,0,0,0,.5,4c.2.3-.7.1-1,.3a.8.8,0,0,0-.4,1,1,1,0,0,1,1.6.6c.2,1-.9,2.6-1.9,2.1a4.2,4.2,0,0,1-2.1-3c-1,.8-2.7.2-3.5,1s1.2,1.2,2,1.6a1,1,0,0,1,.5.8A1.6,1.6,0,0,0,15,19.3c.1,1,1.2,1.6,2.2,1.7s.7.4.2.8-1.9,1.1-2.8.1a.7.7,0,0,0-.8.3.7.7,0,0,0-.1.5l.2-.2h.2c-.1.5-.7.2-.9.6h0a.1.1,0,0,1-.1.1c-.1.2-.3.4.1.6s.1.2.1.2.3-.2.3-.2h.2Z"/><path class="f" d="M9.8,19.5H9.2c0,.1-.1.1,0,.2h0a.5.5,0,0,1-.4-.2c-.1-.1-.1-.1-.1-.2s-.1,0-.1-.1h0v-.5c.1,0,.1,0,.1-.1h.3a.5.5,0,0,1,.5,0H10c.1,0,.2-.2.1-.2s-.4-.2-.6-.6H9.3c0-.8,1-.8,1.4-.5s.1,1.4.8,1.6a2.5,2.5,0,0,0,1.2.1c.7-.3,0-1,.2-1.6s1.4-1.2,2.6-.1a1.9,1.9,0,0,0-.9,2.7,3,3,0,0,0-2.8.7c.6-.6-.3-1.1-.5-1l-.2.2c-.2.1-.2.3-.3.4l-.3.2H10a.1.1,0,0,0,0,.2H9.9l-.3-.2c0-.1-.1-.3,0-.5l.3-.2v-.2"/><path class="f" d="M32.6,9a.2.2,0,0,1-.1.3h-.4c-.4.2-.4,1.3-.4,1.1h.7c.3.1.6-.6.8-.6A2,2,0,0,1,34.4,11c.1.1-.2.1-.2.3a3.1,3.1,0,0,1,1.9.9,2.1,2.1,0,0,1,.8-1c-1.1-1.1-3.3-1.4-3-3.4.1-.3-.2-.5-.3-.6L32.9,7c.2.4-.2.5-.1,1.2h-.1L32.3,8h-.5l-.3.3h.2a.4.4,0,0,0,.1.3h.8"/><path class="f" d="M35.5,8.3c.6-.1,1.3-.6,2.1.3h-.4a1.6,1.6,0,0,1-2.4-.4c.2-.1.5.1.7.1"/><path class="f" d="M38.4,10.8c1.2-.6,2.3-1.1,2.8-2.5s.3.4.3.5c.6,1.7-.6,3.4-.4,5.1a2.8,2.8,0,0,0-1.3-.4,2.5,2.5,0,0,0-2,.8,3.5,3.5,0,0,0-1.5-.7c-.7-.7,1.3-2.5,2.1-2.8"/><path class="f" d="M35.3,22.1c.2.3,0-.1.2.3A3.6,3.6,0,0,1,38,22a2.2,2.2,0,0,1,1.1-2.5c.1-.5-.7-1.4-1.4-1.1s-.5,1.4-.7,2.2a.7.7,0,0,1-1,.5c-.7-.2-1-.9-1.2-1.6s-1.1-.6-1.3-.2.4-.1.3.8-.7,0-.9.5.3.6.7.7-.1-.1,0-.2l.4.2c-.4.2-.5.8.2,1.1s-.1-.3,0-.3a.9.9,0,0,1,1.1,0"/><path class="f" d="M23,33.7c.7.4.9,0,1.8-.1a2,2,0,0,1,.8.4c-.9.2-2,1-2.6-.3"/><path class="f" d="M22.7,34.5h-.2c0-.1-.1-.1-.2-.1h-.1a.1.1,0,0,1,0,.2,7961314590657.4,7961314590657.4,0,0,1-.2.2V35h0c0,.1,0,.2.1.2h.1c.1.1,0,.1.1.2s0,.2-.1.2-.6-.8-1.1-1a.8.8,0,0,0-.9.7c.2,0,.3,0,.3.1s.9.2.9.6-.6,0-.8.1-.3.8-.1,1.2.7.1.9-.1l.5-.4c.6-.3.8.3.7.8l1.2-.3c.3-.1.3-.8.7-1.1s-1.2-.2-1.3-.8,0-.1,0-.2a1.3,1.3,0,0,0-.1-.6H23l-.2-.2h-.1"/><path class="f" d="M18.6,38.3c.3.4-.9-.3-1.4.4a3.3,3.3,0,0,0,0,1c.3-.3.5.2,1-.3s.2.1.1.2a.6.6,0,0,0-.2.7c0,.1.5.4.5.4s.5,0,.6-.6.1-.7.5-.5a.6.6,0,0,1,.3.8c.5-.1,1.4-.7,2-.3a8.6,8.6,0,0,0,2.8,1.1,2.5,2.5,0,0,1-.7-2.2,6.1,6.1,0,0,1-4-.3c-.3-.2-.3-.6-.4-.9a1.1,1.1,0,0,0-1-.7c-.2,0-.8.5-.7.5h0c.1,0,.2,0,.3.2a.3.3,0,0,0,.1.2l.2.2"/><path class="f" d="M21.9,45.7c.3-.4.5-.2.6-.2s.2.4.2.7,2.1-1.3,3.4-1c-.8-.8-.5-2.5.5-2.7h-.7c-.9-.6-2-1.1-2.6.1s.2,1,.7,1.5a.2.2,0,0,1-.2.2c-1,.3-2.8.4-2.9-1.1s-.4-.3-.6-.2-.7.9-.7.8.7,0,.6.3-.7-.1-1,.2a1.1,1.1,0,0,0,0,1.1c-.1-.1.1-.2.1-.2s.8.1.6.9.2.5.4.5h.6c.2-.3.3-.5.6-.6a.5.5,0,0,1,.4.2"/><path class="f" d="M29.7,49.1c.7-.7,1.2-1.6,2-2.3-.8-.5-1.8-1-1.9-2s.1-.2.1-.2a2.6,2.6,0,0,0,3.5-.5c.6-.9.9-2.4,2.2-2.5a1.8,1.8,0,0,1,.8-2.2c-.3-.1-.6-.3-.8-.2s-.5.5-.9.5c.6-1.9-.5-4.7-2.7-4.6a1.1,1.1,0,0,0-1,.7,1.4,1.4,0,0,0,.1,1.4,3.3,3.3,0,0,1,1,2.8,2.2,2.2,0,0,0,.9-1.7c0-.2.3-.1.4-.1s-.4-1.4-.9-2,.2-.4.2-.3c1.9.5,2.1,2.8,1.3,4.3-.2-.3-1-.2-1.3-.3s.7.5.6.7-.8.1-1,.3a2.2,2.2,0,0,0-.4,1.6c.3-.4.8-1,1.3-.7s-.1,2.4-1.1,2.7a1.8,1.8,0,0,1-2.2-.8c-.8-1.1-.2-2.4-.8-3.5s-.4.7-.6.6-1.3-1.3-2-2.1-.3.3-.6.3-1-.1-1.2.1a1.8,1.8,0,0,0,1.2,2.3,4.8,4.8,0,0,1,2.5,1.5c-.4.1-.6-.1-.9-.2a2.4,2.4,0,0,0-.9.3,1.1,1.1,0,0,0-.4,1c.2,1.9,2.4,1.9,3.4,3.1s-.2,1-.7,1.4-1.2-.4-1-1.1-1.1-.8-1.5-.2.2.1.2.2.5.4.5.6-.3-.1-.5-.1a1.2,1.2,0,0,0-1.3.4c0,.1-.2.3-.1.5s.5.4.8.2.4-.3.7-.2V49c-.7.4-1.2,1-.7,1.7s.1-.3.2-.3.4.1.6,0,.2-.4.3-.6.8-.9,1.1-.5,0,.3-.1.4.3.1.5.1h.2c.1-.1.2-.1.2-.3s.3.1.4-.1l.3-.3"/><path class="f" d="M26.6,35.5c1.2-.4,2.6-1,2.8-2.4a1.4,1.4,0,0,1,.5,1.1c.1,1.7-.7,3.1-.3,4.9,0,.2.4.8.2.8s-.6-.5-.8-.4-.3.6-.5.6a3.2,3.2,0,0,1-1.3-1.5,2.1,2.1,0,0,1-.1-.6,3.9,3.9,0,0,1-1.9.6c.2-.1.3-.6.3-.7s-1.2.6-1.2.4,0-.3.1-.4a3.3,3.3,0,0,1,2.2-2.4"/><path class="f" d="M17.6,6.7a1,1,0,0,0,.7-.4c0,.2.3.4.2.6s-.5.4-.5.6.2.9,0,1.3-2.5.9-3.7,1.2,0-.3-.1-.4,1.2,0,1.4-.4a1.9,1.9,0,0,0,0-1.3c-.4-.6-1.2-.3-1.7-.1s.2-.6.5-.7l1.7-.6c.5-.2,1,.2,1.5.2m-.9.7h.1c-.5-.6-1-.6-1.2,0s.7.2,1.1.1"/><path class="f" d="M40,9.2l-.6.3-.4.2H36.7c0-.1,0-.2.1-.2h1.1a1.4,1.4,0,0,0,.2-.6V8.2h0c0-.1-.1-.2-.1-.3s-1.2,0-1.7,0V7.3c.4-.5,1-.2,1.3-.5s1.4-.2,2.5.1a2.2,2.2,0,0,0,1.1-.2c.1-.1.1.4.1.5s-.5.4-.6.7-.3,1.1-.8,1.3m-.7-2.1c.1,0,0,.1.1,0s-1.2-.5-1.4.1.9.1,1.3-.1"/><path class="f" d="M28.1,32c.5.1,1.1.2,1.4-.3s-.5.8-.6,1.1-.2,1-.6,1.3A10.1,10.1,0,0,1,25,35.3c0-.2-.1-.4.1-.4a.9.9,0,0,0,.8-.6,1.3,1.3,0,0,0-.3-1.2c-.4-.2-.7.1-1,.2s.4-.9,1.3-.8.4-.5.3-.5a3.1,3.1,0,0,1,1.9,0m-1.4.9c.2.1.7-.3.9-.4s.1,0,.1-.1h-1a.1.1,0,0,0-.1.1h-.2a.4.4,0,0,0,.1.3h.2"/><path class="f" d="M43.1,27.4c0-.2.4-.7.4-1.1s.8-1.7.8-3-1.4-.7-1.5-1.4-.1-.9.2-.9a1.8,1.8,0,0,0,1.3-.3c1.4-1.3.2-3.1,0-4.6s.6-1.1.6-1.3A9.7,9.7,0,0,1,45,11c-.3.3-.4.8-.8,1.1s-.2-.2-.2-.2a13.9,13.9,0,0,1,1.2-3.2c.6-1.3.3-2.3-.8-2.7a1.8,1.8,0,0,0-2.2,1.6,6.4,6.4,0,0,0,.4,2.8v.7a6.5,6.5,0,0,0,.2-2.4c0-.2.2-.5.4-.5a.7.7,0,0,1,1,.7c-.2,1.2-.4,2.1-.7,3.3s.2,2.8.3,4.1c-.5-.3-1.1-.3-1.3.5s.3.9.4,1.3.5-1.3,1-.9.6,2.2.5,2.5a1.2,1.2,0,0,1-1.4.7c-.4-.1-.3-.6-.5-.9a6.7,6.7,0,0,1-1.8-4.3,7.8,7.8,0,0,1,.1-.9,2,2,0,0,0-2.9.9c-.1-.3-.7-.7-.7-.6a1.8,1.8,0,0,0,.2,1.9c1.2,1,2.4,1.7,3,3.2a1.9,1.9,0,0,0-1.7,1c-.2.8-.1,1.9.7,2.2a4.4,4.4,0,0,0,2,0c.8.1,1.5.7,1.4,1.4s-.3,1.6-.9,1.2-.2-1.1-.8-1.2-.9.9-.8.8.4.1.9.4c-1.6-.4-1.1,1.1-1.1.9s.4,0,1,0h-.2l-.2.4v.4h.1s-.1-.1,0-.1h1c.1-.2.1-.2.2-.2a.4.4,0,0,1,.6-.3h.2V27c0,.1.1.2.1.4"/><path class="f" d="M31.7,12.8l-.2-.3h-.1v-.2a.5.5,0,0,1,.2-.6h.1c0-.1,0-.2-.1-.2h.3c.2,0,.6.2.6.4h.1c.3.6.2,2.1,1.6,2.5a18.5,18.5,0,0,0,2.3.4,2.2,2.2,0,0,0,.4,2.2c-.8-.5-1.4-.4-2.2-1.1a3,3,0,0,0-1.5-.7c-.1.1.2-.5-.1-.6h-.9a2.1,2.1,0,0,1-1.2.9c.2-.1-.9-1,.4-1.4s.2-.3,0-.4-.4,0-.7.2-.3-.5-.8-.2c-.1-1.3,1.1-1.4,1.8-.6h.2Z"/><polygon class="b" points="8.8 32.4 26.8 18.1 44.8 32 44.1 34.3 26.8 21 9.6 34.8 8.8 32.4"/><polygon class="b" points="11.1 38.3 26.8 25.4 42.6 37.6 41.5 39.8 26.8 28.5 12.2 40.4 11.1 38.3"/></svg>